<?xml version="1.0" encoding="iso-8859-1"?>
<!-- Generator: Adobe Illustrator 19.0.0, SVG Export Plug-In . SVG Version: 6.00 Build 0)  -->
<svg version="1.1" id="Layer_1" xmlns="http://www.w3.org/2000/svg" xmlns:xlink="http://www.w3.org/1999/xlink" x="0px" y="0px"
	 viewBox="0 0 321.707 321.707" style="enable-background:new 0 0 321.707 321.707;" xml:space="preserve">
<g>
	<g>
		<path d="M321.707,186.773v-51.84l-37.653-6.293c-2.987-11.2-7.467-21.973-13.333-32l22.187-31.147L256.213,28.8l-31.147,22.187
			c-10.133-5.973-20.907-10.453-32-13.333L186.773,0h-51.84l-6.293,37.653c-11.2,2.987-21.973,7.467-32,13.333L65.493,28.8
			L28.8,65.493L50.987,96.64c-5.973,10.133-10.453,20.907-13.333,32L0,134.933v51.84l37.653,6.293
			c2.987,11.2,7.467,21.973,13.333,32L28.8,256.213l36.693,36.693L96.64,270.72c10.133,5.973,20.907,10.453,32,13.333l6.293,37.653
			h51.84l6.293-37.653c11.2-2.987,21.973-7.467,32-13.333l31.147,22.187l36.693-36.693l-22.187-31.147
			c5.973-10.133,10.453-20.907,13.333-32L321.707,186.773z M271.573,185.493c-2.773,12.587-7.893,24.853-15.04,36.16l-2.453,3.947
			l20.693,29.12l-20.053,20.053l-29.12-20.8l-3.947,2.56c-11.093,7.04-23.253,12.16-36.16,15.04l-4.587,1.067l-5.867,35.2h-28.373
			l-5.867-35.2l-4.587-1.067c-12.587-2.773-24.853-7.893-36.16-15.04l-3.947-2.453l-29.12,20.693L46.933,254.72l20.8-29.12
			l-2.56-3.947c-7.04-11.093-12.16-23.253-15.04-36.16l-1.067-4.587l-35.2-5.867v-28.373l35.2-5.867l1.067-4.587
			c2.773-12.587,7.893-24.853,15.04-36.16l2.453-3.947l-20.693-29.12l20.053-20.053l29.12,20.8l3.947-2.56
			c11.093-7.04,23.253-12.16,36.16-15.04l4.587-1.067l5.867-35.2h28.373l5.867,35.2l4.587,1.067
			c12.587,2.773,24.853,7.893,36.16,15.04l3.947,2.453l29.12-20.693l20.053,20.053l-20.8,29.12l2.56,3.947
			c7.04,11.093,12.16,23.253,15.04,36.16l1.067,4.587l35.2,5.867v28.373l-35.2,5.867L271.573,185.493z" fill="#9567ff"/>
	</g>
</g>
<g>
	<g>
		<path d="M160.96,73.707c-48,0-87.147,39.147-87.147,87.147S112.96,248,160.96,248s87.147-39.147,87.147-87.147
			S208.96,73.707,160.96,73.707z M160.96,234.133c-40.427,0-73.28-32.853-73.28-73.28c0-40.427,32.853-73.28,73.28-73.28
			c40.427,0,73.28,32.853,73.28,73.28C234.24,201.28,201.387,234.133,160.96,234.133z" fill="#9567ff"/>
	</g>
</g>
<g>
	<g>
		<polygon points="167.893,153.92 167.893,100.693 154.027,100.693 154.027,167.787 201.067,167.787 201.067,153.92 		" fill="#9567ff"/>
	</g>
</g>
<g>
</g>
<g>
</g>
<g>
</g>
<g>
</g>
<g>
</g>
<g>
</g>
<g>
</g>
<g>
</g>
<g>
</g>
<g>
</g>
<g>
</g>
<g>
</g>
<g>
</g>
<g>
</g>
<g>
</g>
</svg>
